HIERARCHY
ROOT hip
{
  OFFSET 0 0 0
  CHANNELS 6 Xposition Yposition Zposition Zrotation Yrotation Xrotation
  JOINT abdomen
  {
    OFFSET 0 20.6881 -0.73152
    CHANNELS 3 Zrotation Xrotation Yrotation
    JOINT chest
    {
      OFFSET 0 11.7043 -0.48768
      CHANNELS 3 Zrotation Xrotation Yrotation
      JOINT neck
      {
        OFFSET 0 22.1894 -2.19456
        CHANNELS 3 Zrotation Xrotation Yrotation
        JOINT head
        {
          OFFSET -0.24384 7.07133 1.2192
          CHANNELS 3 Zrotation Xrotation Yrotation
          JOINT leftEye
          {
            OFFSET 4.14528 8.04674 8.04672
            CHANNELS 3 Zrotation Xrotation Yrotation
            End Site
            {
              OFFSET 1 0 0
            }
          }
          JOINT rightEye
          {
            OFFSET -3.6576 8.04674 8.04672
            CHANNELS 3 Zrotation Xrotation Yrotation
            End Site
            {
              OFFSET 1 0 0
            }
          }
        }
      }
      JOINT rCollar
      {
        OFFSET -2.68224 19.2634 -4.8768
        CHANNELS 3 Zrotation Xrotation Yrotation
        JOINT rShldr
        {
          OFFSET -8.77824 -1.95073 1.46304
          CHANNELS 3 Zrotation Xrotation Yrotation
          JOINT rForeArm
          {
            OFFSET -28.1742 -1.7115 0.48768
            CHANNELS 3 Zrotation Xrotation Yrotation
            JOINT rHand
            {
              OFFSET -22.5879 0.773209 7.07136
              CHANNELS 3 Zrotation Xrotation Yrotation
              JOINT rThumb1
              {
                OFFSET -1.2192 -0.487915 3.41376
                CHANNELS 3 Zrotation Xrotation Yrotation
                JOINT rThumb2
                {
                  OFFSET -3.37035 -0.52449 3.41376
                  CHANNELS 3 Zrotation Xrotation Yrotation
                  End Site
                  {
                    OFFSET -1.78271 -1.18214 1.43049
                  }
                }
              }
              JOINT rIndex1
              {
                OFFSET -7.75947 0.938293 5.60832
                CHANNELS 3 Zrotation Xrotation Yrotation
                JOINT rIndex2
                {
                  OFFSET -2.54057 -0.884171 1.56538
                  CHANNELS 3 Zrotation Xrotation Yrotation
                  End Site
                  {
                    OFFSET -1.62519 -0.234802 1.16502
                  }
                }
              }
              JOINT rMid1
              {
                OFFSET -8.24714 1.18213 3.41376
                CHANNELS 3 Zrotation Xrotation Yrotation
                JOINT rMid2
                {
                  OFFSET -3.10165 -0.590103 1.0647
                  CHANNELS 3 Zrotation Xrotation Yrotation
                  End Site
                  {
                    OFFSET -2.48547 -0.328903 0.83742
                  }
                }
              }
              JOINT rRing1
              {
                OFFSET -8.82822 0.546677 1.51678
                CHANNELS 3 Zrotation Xrotation Yrotation
                JOINT rRing2
                {
                  OFFSET -2.60934 -0.819778 -0.0198488
                  CHANNELS 3 Zrotation Xrotation Yrotation
                  End Site
                  {
                    OFFSET -2.33842 -0.294052 0.168128
                  }
                }
              }
              JOINT rPinky1
              {
                OFFSET -8.27202 -0.0477905 -0.4584
                CHANNELS 3 Zrotation Xrotation Yrotation
                JOINT rPinky2
                {
                  OFFSET -1.82734 -0.647385 -0.700984
                  CHANNELS 3 Zrotation Xrotation Yrotation
                  End Site
                  {
                    OFFSET -1.69225 -0.51767 -0.607171
                  }
                }
              }
            }
          }
        }
      }
      JOINT lCollar
      {
        OFFSET 2.68224 19.2634 -4.8768
        CHANNELS 3 Zrotation Xrotation Yrotation
        JOINT lShldr
        {
          OFFSET 8.77824 -1.95073 1.46304
          CHANNELS 3 Zrotation Xrotation Yrotation
          JOINT lForeArm
          {
            OFFSET 28.1742 -1.7115 0.48768
            CHANNELS 3 Zrotation Xrotation Yrotation
            JOINT lHand
            {
              OFFSET 22.5879 0.773209 7.07136
              CHANNELS 3 Zrotation Xrotation Yrotation
              JOINT lThumb1
              {
                OFFSET 1.2192 -0.487915 3.41376
                CHANNELS 3 Zrotation Xrotation Yrotation
                JOINT lThumb2
                {
                  OFFSET 3.37035 -0.52449 3.41376
                  CHANNELS 3 Zrotation Xrotation Yrotation
                  End Site
                  {
                    OFFSET 1.78271 -1.18214 1.43049
                  }
                }
              }
              JOINT lIndex1
              {
                OFFSET 7.75947 0.938293 5.60832
                CHANNELS 3 Zrotation Xrotation Yrotation
                JOINT lIndex2
                {
                  OFFSET 2.54057 -0.884171 1.56538
                  CHANNELS 3 Zrotation Xrotation Yrotation
                  End Site
                  {
                    OFFSET 1.62519 -0.234802 1.16502
                  }
                }
              }
              JOINT lMid1
              {
                OFFSET 8.24714 1.18213 3.41376
                CHANNELS 3 Zrotation Xrotation Yrotation
                JOINT lMid2
                {
                  OFFSET 3.10165 -0.590103 1.0647
                  CHANNELS 3 Zrotation Xrotation Yrotation
                  End Site
                  {
                    OFFSET 2.48547 -0.328903 0.83742
                  }
                }
              }
              JOINT lRing1
              {
                OFFSET 8.82822 0.546677 1.51678
                CHANNELS 3 Zrotation Xrotation Yrotation
                JOINT lRing2
                {
                  OFFSET 2.60934 -0.819778 -0.0198488
                  CHANNELS 3 Zrotation Xrotation Yrotation
                  End Site
                  {
                    OFFSET 2.33842 -0.294052 0.168128
                  }
                }
              }
              JOINT lPinky1
              {
                OFFSET 8.27202 -0.0477905 -0.4584
                CHANNELS 3 Zrotation Xrotation Yrotation
                JOINT lPinky2
                {
                  OFFSET 1.82734 -0.647385 -0.700984
                  CHANNELS 3 Zrotation Xrotation Yrotation
                  End Site
                  {
                    OFFSET 1.69225 -0.51767 -0.607171
                  }
                }
              }
            }
          }
        }
      }
    }
  }
  JOINT rButtock
  {
    OFFSET -8.77824 4.35084 1.2192
    CHANNELS 3 Zrotation Xrotation Yrotation
    JOINT rThigh
    {
      OFFSET 0 -1.70687 -2.19456
      CHANNELS 3 Zrotation Xrotation Yrotation
      JOINT rShin
      {
        OFFSET 0 -36.8199 0.73152
        CHANNELS 3 Zrotation Xrotation Yrotation
        JOINT rFoot
        {
          OFFSET 0.73152 -45.1104 -5.12064
          CHANNELS 3 Zrotation Xrotation Yrotation
          End Site
          {
            OFFSET -1.1221 -3.69964 12.103
          }
        }
      }
    }
  }
  JOINT lButtock
  {
    OFFSET 8.77824 4.35084 1.2192
    CHANNELS 3 Zrotation Xrotation Yrotation
    JOINT lThigh
    {
      OFFSET 0 -1.70687 -2.19456
      CHANNELS 3 Zrotation Xrotation Yrotation
      JOINT lShin
      {
        OFFSET 0 -36.8199 0.73152
        CHANNELS 3 Zrotation Xrotation Yrotation
        JOINT lFoot
        {
          OFFSET -0.73152 -45.1104 -5.12064
          CHANNELS 3 Zrotation Xrotation Yrotation
          End Site
          {
            OFFSET 1.1221 -3.69964 12.103
          }
        }
      }
    }
  }
}
MOTION
Frames:	4
Frame Time:	0.00833333
27.4036 85.0966 -68.7342 0.0 0.0 0.0 0.283894 -0.00291391 0.00816072 0.0784591 -0.00473299 0.0135944 1.44528e-15 0.0 6.21202e-18 4.37326e-15 3.18055e-15 1.86361e-17 -0.0 0.0 0.0 -0.0 0.0 0.0 7.4415e-16 1.55301e-18 1.49089e-16 1.7073e-14 -6.83322e-17 7.95139e-16 2.66322e-13 -7.77248e-14 9.54166e-15 3.0371e-12 8.5055e-14 0.0 7.16437e-12 1.50051e-14 4.13472e-14 1.23668e-11 2.22639e-14 5.96354e-14 7.17056e-12 1.47101e-14 2.54444e-14 7.73091 5.47488 0.417314 7.16301e-12 1.43125e-14 3.81667e-14 2.90554 0.965183 0.102902 7.17084e-12 1.46107e-14 3.49861e-14 10.2786 0.731801 0.0259123 7.16201e-12 1.63003e-14 3.81667e-14 2.22167 -0.733487 -0.20892 6.47389e-16 1.16475e-18 -1.49089e-16 1.3554e-14 2.23633e-16 -5.96354e-16 2.63688e-13 8.26944e-14 -9.54166e-15 3.04119e-12 -7.03946e-14 2.54444e-14 7.17205e-12 2.28323e-14 3.18055e-14 1.23958e-11 3.81667e-14 5.88403e-14 7.16857e-12 2.26615e-14 3.49861e-14 -7.73091 5.47488 -0.417314 7.17314e-12 2.23633e-14 2.8625e-14 -2.90554 0.965183 -0.102902 7.16826e-12 2.28602e-14 3.33958e-14 -10.2786 0.731801 -0.0259123 7.17732e-12 2.54444e-14 2.8625e-14 -2.22167 -0.733487 0.20892 -2.03217e-16 0.0 -3.88251e-19 0.668912 -3.85853 -0.057248 -0.00341784 1.43794 -0.0274399 -0.455255 2.42105 0.10033 2.03217e-16 0.0 3.88251e-19 -0.234825 -2.72419 0.0299387 0.00662647 -0.616662 0.0579729 0.44944 3.34127 -0.117941
27.4079 83.8695 -69.2897 -4.2192 9.6753 3.8859 1.85342 0.217396 0.581025 0.10065 -0.653433 0.197491 3.07455 -0.673833 3.04782 -3.12725 -3.43784 4.7043 -0.0 0.0 0.0 -0.0 0.0 0.0 -2.2917e-14 7.04145e-14 -9.43222e-14 19.2263 2.16945 -6.37634 -17.392 -14.8885 15.0086 0.000417648 0.550806 0.0774086 -6.56418e-11 -9.86717e-11 4.96237e-10 -1.13086e-10 -1.73498e-10 8.55445e-10 -6.56344e-11 -9.86737e-11 4.96218e-10 7.73091 5.47488 0.417314 -6.56433e-11 -9.86718e-11 4.96232e-10 2.90554 0.965183 0.102902 -6.56359e-11 -9.86723e-11 4.9623e-10 10.2786 0.731801 0.0259123 -6.56446e-11 -9.86705e-11 4.96235e-10 2.22167 -0.733487 -0.20892 -2.30426e-14 7.04136e-14 -9.46067e-14 -21.3016 10.6456 -0.17068 4.64538 -2.20291 -7.15289 -0.100879 -7.05544 0.964637 4.31478e-10 4.54186e-10 1.54789e-10 7.43233e-10 7.80507e-10 2.75822e-10 4.31475e-10 4.54187e-10 1.54794e-10 -7.73091 5.47488 -0.417314 4.3148e-10 4.54186e-10 1.54786e-10 -2.90554 0.965183 -0.102902 4.31474e-10 4.54186e-10 1.54791e-10 -10.2786 0.731801 -0.0259123 4.31483e-10 4.54188e-10 1.54787e-10 -2.22167 -0.733487 0.20892 -2.03217e-16 0.0 -3.88251e-19 1.49407 -4.49813 1.1835 0.00168331 4.13781 0.0318707 -0.569361 -0.100869 -2.53504 2.03217e-16 0.0 3.88251e-19 1.7827 -5.69908 -5.22537 0.000619138 5.03345 -0.0645476 0.88753 -0.620096 3.82485
27.5127 83.9679 -69.3302 -3.9882 9.7293 3.7704 3.52266 0.443367 1.18792 0.124613 -1.33801 0.392065 6.3977 -1.37915 6.2713 -5.81013 -6.98706 9.73659 -0.0 0.0 0.0 -0.0 0.0 0.0 -5.12273e-14 1.4894e-13 -1.99825e-13 40.0747 4.36501 -13.1498 -26.8398 -27.0904 33.9504 -0.000871237 1.097 0.1542 -1.48348e-10 -2.02298e-10 1.05552e-09 -2.55609e-10 -3.55925e-10 1.81963e-09 -1.48339e-10 -2.02302e-10 1.0555e-09 7.73091 5.47488 0.417314 -1.48349e-10 -2.02298e-10 1.05552e-09 2.90554 0.965183 0.102902 -1.48343e-10 -2.02299e-10 1.05551e-09 10.2786 0.731801 0.0259123 -1.48351e-10 -2.02297e-10 1.05552e-09 2.22167 -0.733487 -0.20892 -5.13862e-14 1.48939e-13 -2.00095e-13 -43.7455 21.8971 -0.369845 8.96561 -4.41913 -14.752 0.0584671 -14.5029 2.03363 9.22386e-10 9.74188e-10 3.16062e-10 1.58906e-09 1.67435e-09 5.64131e-10 9.22384e-10 9.74191e-10 3.1607e-10 -7.73091 5.47488 -0.417314 9.22388e-10 9.74188e-10 3.16061e-10 -2.90554 0.965183 -0.102902 9.22381e-10 9.74189e-10 3.16065e-10 -10.2786 0.731801 -0.0259123 9.2239e-10 9.74191e-10 3.16062e-10 -2.22167 -0.733487 0.20892 -2.03217e-16 0.0 -3.88251e-19 2.41565 -5.19953 2.5014 0.000887105 7.02877 0.0956376 -0.944971 -2.76925 -5.33185 2.03217e-16 0.0 3.88251e-19 3.33461 -8.74447 -10.8523 0.0207755 11.007 -0.19739 1.94641 -4.77814 8.03029
27.6107 84.0649 -69.3518 -3.7693 9.7285 3.6319 4.97925 0.657751 1.72685 0.157531 -1.95075 0.565574 9.43781 -1.99863 9.14844 -7.68507 -10.0338 14.3109 -0.0 0.0 0.0 -0.0 0.0 0.0 -7.02393e-14 2.1124e-13 -2.83265e-13 59.1045 6.18629 -19.2316 -28.3658 -31.5638 53.8605 -0.00321357 1.65241 0.232312 -2.11254e-10 -2.96045e-10 1.48863e-09 -3.6399e-10 -5.20538e-10 2.56621e-09 -2.11244e-10 -2.9605e-10 1.4886e-09 7.73091 5.47488 0.417314 -2.11256e-10 -2.96044e-10 1.48862e-09 2.90554 0.965183 0.102902 -2.11249e-10 -2.96046e-10 1.48862e-09 10.2786 0.731801 0.0259123 -2.11258e-10 -2.96044e-10 1.48863e-09 2.22167 -0.733487 -0.20892 -7.04225e-14 2.11238e-13 -2.83522e-13 -63.6858 31.9357 -0.59298 12.3209 -6.19762 -21.5751 0.45347 -21.1414 3.07944 1.28009e-09 1.36251e-09 4.64302e-10 2.20491e-09 2.34145e-09 8.27349e-10 1.28009e-09 1.36252e-09 4.64312e-10 -7.73091 5.47488 -0.417314 1.28009e-09 1.36251e-09 4.64302e-10 -2.90554 0.965183 -0.102902 1.28009e-09 1.36251e-09 4.64306e-10 -10.2786 0.731801 -0.0259123 1.28009e-09 1.36251e-09 4.64303e-10 -2.22167 -0.733487 0.20892 -2.03217e-16 0.0 -3.88251e-19 3.22779 -5.76842 3.67243 -0.00507857 9.53751 0.152331 -1.49326 -5.09722 -7.83678 2.03217e-16 0.0 3.88251e-19 4.17693 -11.279 -15.9748 0.0633689 16.3334 -0.321824 3.40012 -8.36784 11.8372
